#!OML:ASF \\sashay\E\Suitcase\Project 1\Capture day 1\Session 1\Male1.ASF
:FULLY-SPECIFIED
:DEGREES
392
root -0.254303 17.4386 -33.6305 9.84365 -2.37019 -5.53347
lowerback 8.97439 2.17511 6.6597
upperback 3.04708 3.63905 7.46741
thorax -1.92989 1.79441 3.66943
lowerneck -15.0884 -1.72104 -4.15817
upperneck 12.129 -0.210808 -7.93532
head 6.19445 -0.951394 -1.88528
rclavicle -3.18055e-015 2.8625e-014
rhumerus -23.6674 -33.4471 -63.7249
rradius 8.61587
rwrist 11.3782
rhand -21.0272 18.7192
rfingers 7.12502
rthumb 5.34807 -11.1933
lclavicle -3.18055e-015 2.8625e-014
lhumerus -35.9559 -2.46728 92.7813
lradius 36.8656
lwrist -0.655057
lhand -0.731404 41.7991
lfingers 7.12502
lthumb 24.8896 70.1986
rfemur -0.566585 -0.397157 30.2636
rtibia 13.7148
rfoot -18.2395 -5.38742
rtoes 7.57419
lfemur -38.169 -1.99163 -13.1043
ltibia 29.8238
lfoot -14.0709 -0.419382
ltoes -8.10591
393
root -0.255599 17.4365 -33.5607 9.85749 -2.53741 -5.81655
lowerback 9.23031 2.20341 6.92496
upperback 2.88551 3.74161 7.31868
thorax -2.21522 1.83798 3.3408
lowerneck -15.332 -1.63277 -4.31923
upperneck 12.6015 -0.0656433 -7.50359
head 6.38919 -0.877018 -1.71618
rclavicle -1.66979e-014 -1.90833e-014
rhumerus -23.6553 -33.3178 -64.2801
rradius 8.50337
rwrist 11.3186
rhand -21.5484 18.1868
rfingers 7.12502
rthumb 4.84482 -11.7378
lclavicle -1.66979e-014 -1.90833e-014
lhumerus -36.5881 -2.21911 92.2693
lradius 36.9561
lwrist -0.719894
lhand -0.703651 41.3141
lfingers 7.12502
lthumb 24.9162 69.71
rfemur -0.0647272 -0.28041 30.5657
rtibia 13.0836
rfoot -17.9179 -5.51421
rtoes 5.94843
lfemur -38.2704 -1.9536 -12.8003
ltibia 29.0837
lfoot -14.1904 -0.428492
ltoes -5.76479
394
root -0.251412 17.4409 -33.482 10.0699 -2.47303 -5.86522
lowerback 8.71295 2.32425 6.8032
upperback 2.99896 3.81908 7.33624
thorax -1.81952 1.88593 3.44255
lowerneck -15.571 -1.75414 -4.08889
upperneck 12.1985 -0.245206 -7.828
head 6.29645 -0.968721 -1.87313
rclavicle -2.46493e-014 -1.90833e-014
rhumerus -23.1192 -33.4853 -64.5504
rradius 8.24967
rwrist 11.3096
rhand -22.2058 18.0747
rfingers 7.12502
rthumb 4.21006 -11.8634
lclavicle -2.46493e-014 -1.90833e-014
lhumerus -36.3234 -2.19228 92.2558
lradius 36.6379
lwrist -0.710047
lhand -1.18112 40.9112
lfingers 7.12502
lthumb 24.4586 69.3696
rfemur 0.414425 -0.314505 30.5942
rtibia 12.3031
rfoot -17.6851 -5.59822
rtoes 6.00273
lfemur -38.5735 -2.07032 -12.8397
ltibia 28.3772
lfoot -14.0867 -0.501769
ltoes -5.67306
395
root -0.251009 17.4296 -33.4117 9.91871 -2.42769 -5.95157
lowerback 8.93555 2.32893 6.66943
upperback 3.00382 3.84245 7.40494
thorax -1.95224 1.89515 3.57739
lowerneck -15.6536 -1.69846 -4.18932
upperneck 12.1698 -0.142247 -7.83218
head 6.30448 -0.924653 -1.84896
rclavicle -8.74653e-015 1.74931e-014
rhumerus -22.7816 -33.2724 -64.7461
rradius 8.20124
rwrist 10.8008
rhand -22.1405 18.4545
rfingers 7.12502
rthumb 4.27314 -11.4824
lclavicle -8.74653e-015 1.74931e-014
lhumerus -36.5035 -1.81702 92.0981
lradius 36.4528
lwrist -0.736834
lhand -1.01584 40.6202
lfingers 7.12502
lthumb 24.617 69.0572
rfemur 1.31972 -0.163932 30.7344
rtibia 11.3973
rfoot -17.1804 -5.9878
rtoes 5.64263
lfemur -38.6871 -2.3957 -12.7202
ltibia 27.819
lfoot -13.9904 0.19671
ltoes -4.56869
396
root -0.244146 17.4237 -33.3365 10.1655 -2.27111 -5.86794
lowerback 8.61914 2.36035 6.64843
upperback 2.94562 3.8472 7.2235
thorax -1.82651 1.90027 3.40877
lowerneck -15.9111 -1.66487 -4.22421
upperneck 12.336 -0.08327 -7.6528
head 6.40191 -0.894568 -1.7855
rclavicle -8.74653e-015 -2.22639e-014
rhumerus -22.6898 -33.3725 -65.0716
rradius 8.43308
rwrist 10.4538
rhand -22.1711 18.8228
rfingers 7.12502
rthumb 4.24351 -11.1147
lclavicle -8.74653e-015 -2.22639e-014
lhumerus -36.6684 -1.67519 91.7431
lradius 36.412
lwrist -0.864585
lhand -1.18303 40.8477
lfingers 7.12502
lthumb 24.4568 69.3064
rfemur 1.63645 -0.543412 30.6183
rtibia 10.708
rfoot -16.7434 -5.86466
rtoes 5.01942
lfemur -39.1579 -2.21429 -13.1183
ltibia 27.1665
lfoot -14.0685 0.40184
ltoes -11.1938
